<?xml version="1.0" encoding="UTF-8"?>
<svg width="231px" height="348px" viewBox="0 0 231 348" version="1.1" xmlns="http://www.w3.org/2000/svg" xmlns:xlink="http://www.w3.org/1999/xlink">
    <!-- Generator: Sketch 63.1 (92452) - https://sketch.com -->
    <title>Group</title>
    <desc>Created with Sketch.</desc>
    <g id="Homes" stroke="none" stroke-width="1" fill="none" fill-rule="evenodd">
        <g id="Home-Sygris-LITE" transform="translate(0.000000, -676.000000)">
            <g id="menu-lateral-izq" transform="translate(0.000000, 39.000000)">
                <g id="Group" transform="translate(0.000000, 637.000000)">
                    <path d="M0,72 C42.3549156,74.1261796 71.5139204,87.2559183 87.4770145,111.389216 C111.421656,147.589162 110.671574,173.608799 136.080544,173.608799 C161.489514,173.608799 174.944234,157.55377 185.689191,173.608799 C192.852496,184.312152 207.956099,197.740687 231,213.894404 L231,345.249315 L0,346 L0,72 Z" id="Path-2" fill="#A43B2C" opacity="0.777669271"></path>
                    <path d="M0,0 C42.3549156,2.12730496 71.5139204,15.2639929 87.4770145,39.4100637 C111.421656,75.6291699 110.671574,101.662578 136.080544,101.662578 C161.489514,101.662578 174.944234,85.5990513 185.689191,101.662578 C192.852496,112.371596 207.956099,125.807239 231,141.969505 L231,346.248918 L0,347 L0,0 Z" id="Path-2" fill="#8B1A12" opacity="0.346633185" transform="translate(115.500000, 173.500000) scale(-1, 1) translate(-115.500000, -173.500000) "></path>
                    <path d="M231,348 L0,348 L0,292.673665 C26.1421437,286.224555 44.6713941,283 55.5877511,283 C71.9622867,283 105.432147,319.618353 122.584097,315.5 C139.736047,311.381647 186.134776,308.826189 199.618424,320.227218 C208.607522,327.827904 219.068048,333.085996 231,336.001494 L231,348 Z" id="Path-3" fill="#D10000" transform="translate(115.500000, 315.500000) scale(-1, 1) translate(-115.500000, -315.500000) "></path>
                </g>
            </g>
        </g>
    </g>
</svg>