<?xml version="1.0" encoding="utf-8"?>
<!-- Generator: Adobe Illustrator 21.0.0, SVG Export Plug-In . SVG Version: 6.00 Build 0)  -->
<svg version="1.1" id="Capa_1" xmlns="http://www.w3.org/2000/svg" xmlns:xlink="http://www.w3.org/1999/xlink" x="0px" y="0px"
	 viewBox="0 0 154.2 53.8" style="enable-background:new 0 0 154.2 53.8;" xml:space="preserve">
<style type="text/css">
	.st0{fill:#FFFFFF;}
</style>
<g>
	<path class="st0" d="M0,37.2l4.3-3.8c1.4,1.6,3.2,3,6.4,3c2.1,0,3.4-0.9,3.4-2.5C14.1,29.7,1,31.3,1,21.4c0-5.1,4.4-8.2,10.1-8.2
		c5.3,0,8.2,2.8,9.5,4.9l-4.8,3.6c-0.8-1.1-2.4-2.7-5-2.7c-1.7,0-2.9,0.8-2.9,2.2c0,4.4,13.2,2.3,13.2,12.2c0,5.4-4.7,8.8-10.7,8.8
		C4.9,42.3,1.5,39.5,0,37.2"/>
	<path class="st0" d="M66.1,19.7c-4.1,0-7.1,3.2-7.1,8.1s3,8.1,7.1,8.1c4.2,0,7.1-3.2,7.1-8.1C73.2,23,70.4,19.7,66.1,19.7
		 M57.5,45.6c0.9,0.5,4.1,1.9,7.9,1.9c4,0,7.6-1.2,7.6-5.5v-3.3c-0.6,0.8-3.3,3.6-8.1,3.6c-8,0-13.3-6-13.3-14.5s5.6-14.6,13.5-14.6
		c4.7,0,7.5,2.5,8.3,3.6v-2.9h6.9v26.2c0,10.3-6.7,13.7-14.9,13.7c-3.8,0-7.7-1.2-10.2-2.5L57.5,45.6z"/>
	<path class="st0" d="M111.6,0c2.4,0,4.3,1.8,4.3,4.2s-1.9,4.2-4.3,4.2s-4.2-1.8-4.2-4.2C107.3,1.8,109.2,0,111.6,0"/>
	<rect x="108" y="13.9" class="st0" width="7.3" height="27.7"/>
	<g>
		<path class="st0" d="M119.2,37.2l4.3-3.8c1.4,1.6,3.2,3,6.4,3c2.1,0,3.4-0.9,3.4-2.5c0-4.2-13.1-2.6-13.1-12.5
			c0-5.1,4.4-8.2,10.1-8.2c5.3,0,8.2,2.8,9.5,4.9l-4.8,3.6c-0.8-1.1-2.4-2.7-5-2.7c-1.7,0-2.9,0.8-2.9,2.2c0,4.4,13.2,2.3,13.2,12.2
			c0,5.4-4.7,8.8-10.7,8.8C124.1,42.3,120.7,39.5,119.2,37.2"/>
	</g>
	<polygon class="st0" points="36.6,32.4 30,13.9 22.4,13.9 29.6,32.4 	"/>
	<polygon class="st0" points="36.9,52.1 29.3,52.1 43.9,13.9 51.6,13.9 	"/>
	<path class="st0" d="M85.9,13.9h7.2v3.6h0.1c0.8-1.4,1.9-2.4,3.3-3.2c1.4-0.8,3.1-1.1,4.9-1.1c0.4,0,0.8,0,1.2,0.1
		c0.4,0.1,0.8,0.2,1.2,0.3v7.3c-0.6-0.2-1.1-0.3-1.7-0.4c-0.6-0.1-1.1-0.1-1.6-0.1c-1.6,0-2.9,0.3-3.9,0.9c-1,0.6-1.7,1.3-2.3,2.1
		c-0.5,0.8-0.9,1.5-1,2.3C93.1,26.5,93,27,93,27.4v14.2h-7.2V13.9H85.9z"/>
	<path class="st0" d="M147.7,37.9c0,1.3,0.9,2.3,2.2,2.3c0.9,0,1.5-0.5,1.8-0.9l-0.5-0.5c-0.2,0.2-0.6,0.6-1.3,0.6
		c-0.9,0-1.4-0.7-1.4-1.6c0-0.9,0.5-1.6,1.4-1.6c0.7,0,1.1,0.4,1.3,0.6l0.5-0.5c-0.3-0.3-0.9-0.9-1.8-0.9
		C148.6,35.6,147.7,36.6,147.7,37.9 M146.4,37.9c0-2.1,1.5-3.7,3.5-3.7c2.1,0,3.6,1.6,3.6,3.7c0,2.1-1.4,3.7-3.5,3.7
		C147.8,41.6,146.4,40,146.4,37.9 M145.6,37.9c0,2.4,1.8,4.3,4.3,4.3s4.3-1.9,4.3-4.3c0-2.4-1.8-4.4-4.3-4.4S145.6,35.5,145.6,37.9"
		/>
</g>
</svg>
